<svg viewBox="-78 0 512 512.00081" xmlns="http://www.w3.org/2000/svg"><path d="m330.324219 297.289062c-4.5625 0-8.261719 3.699219-8.261719 8.261719v21.175781c0 11.109376-9.003906 20.113282-20.109375 20.113282h-34.269531c3.066406 3.757812 4.832031 7.945312 4.832031 12.386718 0 15.960938-22.183594 28.902344-49.546875 28.902344-27.367188 0-49.546875-12.941406-49.546875-28.902344 0-4.441406 1.765625-8.628906 4.832031-12.386718h-34.269531c-11.109375 0-20.113281-9.003906-20.113281-20.113282v-21.175781c0-4.5625-3.695313-8.261719-8.257813-8.261719-4.558593 0-8.257812 3.699219-8.257812 8.261719v50.925781c0 15.386719 3.582031 30.558594 10.464843 44.320313l32.617188 65.238281c10.703125 21.40625 29.832031 37.933594 53.078125 43.609375 37.480469 9.148438 74.714844-9.070312 91.160156-41.960937l33.445313-66.886719c6.878906-13.761719 10.460937-28.933594 10.460937-44.316406v-50.929688c0-4.5625-3.699219-8.261719-8.257812-8.261719zm0 0" fill="#faebc8"/><path d="m138.699219 14.789062-113.925781 92.566407 36.488281 24.773437 95.640625-38.363281 73.578125-93.765625h-50.121094c-15.175781 0-29.882813 5.222656-41.660156 14.789062zm0 0" fill="#e6646e"/><path d="m338.582031 173.421875-71.375-149.882813c-6.769531-14.222656-21.039062-23.300781-36.753906-23.5039058l.027344-.0351562h-50.121094c-15.175781 0-29.886719 5.222656-41.660156 14.789062l-113.925781 92.566407 15.976562 10.847656 106.953125-86.894531c.082031-.066406.164063-.132813.246094-.199219 8.921875-7.179687 21.601562 2.6875 17.476562 13.371094l-49.8125 128.941406zm0 0" fill="#ff8087"/><path d="m338.582031 231.226562h-231.226562c-9.125 0-16.515625-7.394531-16.515625-16.515624v-33.03125c0-9.125 7.394531-16.519532 16.515625-16.519532h231.226562c9.121094 0 16.515625 7.398438 16.515625 16.519532v33.03125c0 9.121093-7.394531 16.515624-16.515625 16.515624zm0 0" fill="#faebc8"/><path d="m140.386719 189.9375v-24.777344h-33.03125c-9.121094 0-16.515625 7.398438-16.515625 16.519532v33.03125c0 9.121093 7.394531 16.515624 16.515625 16.515624h231.226562c9.121094 0 16.515625-7.394531 16.515625-16.515624h-189.9375c-13.683594 0-24.773437-11.09375-24.773437-24.773438zm0 0" fill="#f5dcb4"/><path d="m66.0625 123.871094c0 18.242187-14.785156 33.03125-33.03125 33.03125-18.242188 0-33.03125-14.789063-33.03125-33.03125 0-18.242188 14.789062-33.03125 33.03125-33.03125 18.246094 0 33.03125 14.789062 33.03125 33.03125zm0 0" fill="#faebc8"/><path d="m45.417969 144.515625c-18.242188 0-33.03125-14.789063-33.03125-33.03125 0-5.929687 1.582031-11.519531 4.316406-16.328125-9.988281 5.679688-16.703125 16.398438-16.703125 28.714844 0 18.242187 14.789062 33.03125 33.03125 33.03125 12.316406 0 23.042969-6.707032 28.722656-16.699219-4.8125 2.734375-10.40625 4.3125-16.335937 4.3125zm0 0" fill="#f5dcb4"/><path d="m317.5 322.9375c-4.089844-2.027344-9.03125-.386719-11.082031 3.691406l-1.785157 3.628906c-3.445312 6.980469-12.003906 9.699219-18.84375 5.976563l-35.613281-19.371094c-7.828125-3.476562-16.796875-2.78125-23.980469 1.894531-1.15625.75-2.226562 1.59375-3.226562 2.5-1-.90625-2.074219-1.75-3.226562-2.5-7.1875-4.675781-16.152344-5.371093-23.984376-1.894531l-35.613281 19.371094c-6.835937 3.722656-15.398437 1.003906-18.839843-5.976563l-1.789063-3.628906c-2.046875-4.078125-6.992187-5.71875-11.082031-3.691406-4.082032 2.039062-5.734375 7-3.691406 11.078125l7.84375 15.6875c6.136718 12.265625 18.777343 19.933594 32.292968 19.933594 1.304688 0 2.628906-.070313 3.949219-.214844l39-4.332031c5.703125-.632813 11.007813-3.066406 15.136719-6.746094 4.132812 3.679688 9.4375 6.113281 15.140625 6.746094l38.996093 4.332031c1.324219.144531 2.648438.214844 3.953126.214844 13.515624 0 26.152343-7.667969 32.289062-19.933594l7.847656-15.6875c2.042969-4.078125.390625-9.039063-3.691406-11.078125zm0 0" fill="#faebc8"/><g fill="#f5dcb4"><path d="m317.5 322.9375c-4.085938-2.023438-9.023438-.390625-11.074219 3.683594l-.003906.007812-.140625.277344-1.648438 3.347656c-.035156.070313-.085937.125-.121093.191406l-5.933594 11.867188c-3.285156 6.566406-10.164063 10.808594-17.523437 10.808594-.710938 0-1.429688-.042969-2.128907-.117188l-38.996093-4.328125c-2.21875-.246093-4.304688-1.179687-5.972657-2.664062-6.261719-5.582031-15.714843-5.582031-21.980469 0-1.664062 1.484375-3.753906 2.417969-5.96875 2.664062l-38.980468 4.324219c-.71875.078125-1.4375.121094-2.148438.121094-7.359375 0-14.234375-4.242188-17.519531-10.808594l-5.9375-11.867188c-.035156-.066406-.085937-.121093-.117187-.191406l-1.652344-3.347656-.136719-.277344-.003906-.007812c-2.050781-4.074219-6.988281-5.707032-11.074219-3.683594-4.082031 2.039062-5.734375 7-3.695312 11.078125l7.847656 15.6875c6.136718 12.265625 18.773437 19.933594 32.289062 19.933594 1.304688 0 2.628906-.070313 3.953125-.214844l38.996094-4.332031c5.703125-.632813 11.011719-3.066406 15.140625-6.746094 4.128906 3.679688 9.4375 6.113281 15.136719 6.746094l39 4.332031c1.324219.144531 2.644531.214844 3.953125.214844 13.515625 0 26.152344-7.667969 32.289062-19.933594l7.847656-15.6875c2.039063-4.078125.386719-9.039063-3.695312-11.078125zm0 0"/><path d="m150.4375 466.039062c10.703125 21.402344 29.832031 37.929688 53.078125 43.605469 9.539063 2.328125 19.058594 2.863281 28.226563 1.855469-11.972657-1.796875-22.6875-8.753906-29.109376-19.261719l-63.011718-103.109375c-10.300782-16.855468-15.75-36.226562-15.75-55.980468v-27.597657c0-4.5625-3.699219-8.261719-8.257813-8.261719-4.5625 0-8.257812 3.699219-8.257812 8.261719v50.925781c0 15.386719 3.582031 30.558594 10.460937 44.320313zm0 0"/></g></svg>